<svg width="614.4" height="345.6" xmlns="http://www.w3.org/2000/svg">
  <path
    d="M219.702 340.196c-.217-.352.598-1.07.887-.78.116.116.211.403.211.637 0 .477-.825.584-1.098.143zm7.498-8.836c0-.264.144-.48.32-.48.176 0 .32.216.32.48s-.144.48-.32.48c-.176 0-.32-.216-.32-.48zm225.396-.96c-.11-.287-.053-.67.128-.852.521-.521 1.516-.17 1.516.536 0 .814-1.353 1.075-1.644.317zm-286.923-2.274c-.348-.348.073-.766.773-.766.375 0 .591.168.514.4-.152.457-.965.688-1.287.366zm40.58-1.064c-.218-.354.287-.735.582-.44.305.304.248.738-.096.738-.166 0-.384-.134-.485-.298zM76.48 323.2a.32.32 0 01.32-.32.32.32 0 01.32.32.32.32 0 01-.32.32.32.32 0 01-.32-.32zm345.777-2.213a.357.357 0 01.116-.49.357.357 0 01.49.116.357.357 0 01-.116.49.357.357 0 01-.49-.116zm-308.017-1.12c0-.279.228-.507.507-.507.565 0 .466.689-.127.887-.209.07-.38-.102-.38-.38zm-17.764-2.556c-.606-.45-.61-.499-.076-1.04.5-.507.612-.516 1.043-.085.397.397.41.582.076 1.04-.363.496-.475.505-1.043.085zm220.644-.831a.32.32 0 01.32-.32.32.32 0 01.32.32.32.32 0 01-.32.32.32.32 0 01-.32-.32zm31.19-2.256c-.304-.492.113-.81.523-.399.23.23.236.409.017.544-.18.11-.422.046-.54-.145zm263.85-2.704c0-.264.144-.48.32-.48.176 0 .32.216.32.48s-.144.48-.32.48c-.176 0-.32-.216-.32-.48zm-446.72-.8a.32.32 0 01.32-.32.32.32 0 01.32.32.32.32 0 01-.32.32.32.32 0 01-.32-.32zM61.12 308c0-.264.144-.48.32-.48.176 0 .32.216.32.48s-.144.48-.32.48c-.176 0-.32-.216-.32-.48zm449.28.16a.32.32 0 01.32-.32.32.32 0 01.32.32.32.32 0 01-.32.32.32.32 0 01-.32-.32zm103.04-1.92a.32.32 0 01.32-.32.32.32 0 01.32.32.32.32 0 01-.32.32.32.32 0 01-.32-.32zm-516.898-3.725c-.256-.255.033-.755.437-.755.166 0 .301.216.301.48 0 .495-.378.636-.738.275zm315.298-.435a.32.32 0 01.32-.32.32.32 0 01.32.32.32.32 0 01-.32.32.32.32 0 01-.32-.32zm202.29-.32c0-.44.073-.62.162-.4.089.22.089.58 0 .8-.089.22-.161.04-.161-.4zm-511.09-3.04c0-.293.155-.482.344-.419.19.063.344.252.344.419 0 .167-.155.356-.344.419-.19.063-.344-.126-.344-.419zm51.52-.64c0-.293.155-.482.344-.419.19.063.344.252.344.419 0 .167-.155.356-.344.419-.19.063-.344-.126-.344-.419zm-70.72-2.4a.32.32 0 01.32-.32.32.32 0 01.32.32.32.32 0 01-.32.32.32.32 0 01-.32-.32zM76 292.8c-.261-.422.122-1.021.502-.786.389.24.386 1.106-.003 1.106-.166 0-.39-.144-.499-.32zm474.08-.96a.32.32 0 01.32-.32.32.32 0 01.32.32.32.32 0 01-.32.32.32.32 0 01-.32-.32zm-443.68-1.28c.109-.176.333-.32.499-.32.165 0 .301.144.301.32 0 .176-.224.32-.499.32-.274 0-.41-.144-.301-.32zm9.76-3.84a.32.32 0 01.32-.32.32.32 0 01.32.32.32.32 0 01-.32.32.32.32 0 01-.32-.32zm-23.186-5.098c-.237-.383.365-.762.791-.499.358.221.123.797-.325.797-.155 0-.365-.134-.466-.298zm338.706-.36c0-.187.144-.25.32-.142.176.109.32.261.32.339 0 .077-.144.141-.32.141-.176 0-.32-.152-.32-.339zm6.72-1.403c0-.657.663-.98.975-.475.144.234.192.54.105.68-.269.436-1.08.281-1.08-.205zm21.76-.518c0-.186.144-.25.32-.141.176.109.32.261.32.339 0 .077-.144.141-.32.141-.176 0-.32-.152-.32-.339zm-364.8-1.901a.32.32 0 01.32-.32.32.32 0 01.32.32.32.32 0 01-.32.32.32.32 0 01-.32-.32zm319.565.098c-.36-.36-.22-.738.275-.738.264 0 .48.136.48.301 0 .404-.5.693-.755.437zM3.52 277.12a.32.32 0 01.32-.32.32.32 0 01.32.32.32.32 0 01-.32.32.32.32 0 01-.32-.32zm504.64-.659c0-.186.144-.25.32-.141.176.109.32.261.32.339 0 .077-.144.141-.32.141-.176 0-.32-.152-.32-.339zm81.6-.301a.32.32 0 01.32-.32.32.32 0 01.32.32.32.32 0 01-.32.32.32.32 0 01-.32-.32zm-330.88-.32a.32.32 0 01.32-.32.32.32 0 01.32.32.32.32 0 01-.32.32.32.32 0 01-.32-.32zm-56.435-1.502c-.383-.382-.207-1.058.275-1.058.264 0 .48.208.48.461 0 .535-.457.896-.755.597zm242.035-1.058a.32.32 0 01.32-.32.32.32 0 01.32.32.32.32 0 01-.32.32.32.32 0 01-.32-.32zm-387.84-.32a.32.32 0 01.32-.32.32.32 0 01.32.32.32.32 0 01-.32.32.32.32 0 01-.32-.32zm-52.48-.301c0-.166.144-.39.32-.499.176-.109.32.027.32.301 0 .275-.144.499-.32.499-.176 0-.32-.136-.32-.301zm347.52-.979a.32.32 0 01.32-.32.32.32 0 01.32.32.32.32 0 01-.32.32.32.32 0 01-.32-.32zm20.48-1.28a.32.32 0 01.32-.32.32.32 0 01.32.32.32.32 0 01-.32.32.32.32 0 01-.32-.32zm-138.24-.32a.32.32 0 01.32-.32.32.32 0 01.32.32.32.32 0 01-.32.32.32.32 0 01-.32-.32zm-94.4-.64a.32.32 0 01.32-.32.32.32 0 01.32.32.32.32 0 01-.32.32.32.32 0 01-.32-.32zm263.04-1.12c0-.264.216-.48.48-.48s.48.216.48.48-.216.48-.48.48a.481.481 0 01-.48-.48zm159.36-1.12a.32.32 0 01.32-.32.32.32 0 01.32.32.32.32 0 01-.32.32.32.32 0 01-.32-.32zm-153.6-2.88a.32.32 0 01.32-.32.32.32 0 01.32.32.32.32 0 01-.32.32.32.32 0 01-.32-.32zm-117.466-3.76a7.99 7.99 0 00.482-1.144c.231-.741 1.257-.575 1.412.23.127.66-.525 1.23-1.148 1-.22-.08-.4-.006-.4.164s-.145.31-.323.31c-.208 0-.216-.199-.023-.56zm310.746-1.04a.32.32 0 01.32-.32.32.32 0 01.32.32.32.32 0 01-.32.32.32.32 0 01-.32-.32zm-219.627-4.053c-.368-.369-.233-.747.267-.747.264 0 .48.216.48.48 0 .5-.378.635-.747.267zm104.885-1.423c-.241-.39.477-.977.887-.724.14.087.255.365.255.619 0 .543-.825.619-1.142.105zm-293.693-.186c-.36-.36-.22-.738.275-.738.264 0 .48.136.48.301 0 .404-.5.693-.755.437zM367.68 252.8a.32.32 0 01.32-.32.32.32 0 01.32.32.32.32 0 01-.32.32.32.32 0 01-.32-.32zm-295.04-.979c0-.186.144-.25.32-.141.176.109.32.261.32.339 0 .077-.144.141-.32.141-.176 0-.32-.152-.32-.339zm342.72-1.722c0-.274.144-.499.32-.499.176 0 .32.136.32.301 0 .166-.144.39-.32.499-.176.109-.32-.027-.32-.301zm160.96-2.118c0-.186.144-.25.32-.141.176.109.32.261.32.339 0 .077-.144.141-.32.141-.176 0-.32-.152-.32-.339zm-396.938-.585c-.217-.352.598-1.07.887-.78.116.116.211.403.211.637 0 .477-.825.584-1.098.143zm-23.542-1.316a.32.32 0 01.32-.32.32.32 0 01.32.32.32.32 0 01-.32.32.32.32 0 01-.32-.32zm376.16-.96c.109-.176.261-.32.339-.32.078 0 .141.144.141.32 0 .176-.152.32-.339.32-.186 0-.25-.144-.141-.32zm-88.96-1.28c-.109-.176.035-.32.32-.32.285 0 .429.144.32.32-.109.176-.253.32-.32.32s-.211-.144-.32-.32zm89.76-4.16c0-.176.216-.32.48-.32s.48.144.48.32c0 .176-.216.32-.48.32s-.48-.144-.48-.32zm-174.979-.664c.063-.19.252-.344.419-.344.167 0 .356.155.419.344.063.19-.126.344-.419.344s-.482-.155-.419-.344zm98.819-1.096c0-.264.216-.48.48-.48s.48.216.48.48-.216.48-.48.48a.481.481 0 01-.48-.48zm135.753-.54c.198-.593.887-.692.887-.127a.508.508 0 01-.507.507c-.278 0-.45-.171-.38-.38zm-239.113-2.5a.32.32 0 01.32-.32.32.32 0 01.32.32.32.32 0 01-.32.32.32.32 0 01-.32-.32zm28.702.115c-.256-.255.033-.755.437-.755.166 0 .301.216.301.48 0 .495-.378.636-.738.275zm-186.591-2.625c-.11-.18-.045-.422.145-.54.492-.304.81.112.399.523-.23.23-.409.236-.544.017zm281.409-.05a.32.32 0 01.32-.32.32.32 0 01.32.32.32.32 0 01-.32.32.32.32 0 01-.32-.32zm93.482-2.35c-.443-.534.086-1.312.726-1.067.281.108.512.402.512.653 0 .618-.836.898-1.238.414zm-253.625-1.783a.357.357 0 01.116-.49.357.357 0 01.49.116.357.357 0 01-.116.49.357.357 0 01-.49-.116zm213.743-.347c-.109-.176-.045-.32.141-.32.187 0 .339.144.339.32 0 .176-.063.32-.141.32-.078 0-.23-.144-.339-.32zm-423.84-1.28a.32.32 0 01.32-.32.32.32 0 01.32.32.32.32 0 01-.32.32.32.32 0 01-.32-.32zm80.32-2.24c0-.176.216-.32.48-.32s.48.144.48.32c0 .176-.216.32-.48.32s-.48-.144-.48-.32zm-109.76-2.24c0-.176.153-.32.339-.32.186 0 .25.144.141.32-.109.176-.261.32-.339.32-.077 0-.141-.144-.141-.32zm407.68-.32a.32.32 0 01.32-.32.32.32 0 01.32.32.32.32 0 01-.32.32.32.32 0 01-.32-.32zm21.12-.64a.32.32 0 01.32-.32.32.32 0 01.32.32.32.32 0 01-.32.32.32.32 0 01-.32-.32zm-357.44-1.6a.32.32 0 01.32-.32.32.32 0 01.32.32.32.32 0 01-.32.32.32.32 0 01-.32-.32zm360.64-.133c0-.279.228-.507.507-.507.565 0 .466.689-.127.887-.209.07-.38-.102-.38-.38zM52.8 218.56a.32.32 0 01.32-.32.32.32 0 01.32.32.32.32 0 01-.32.32.32.32 0 01-.32-.32zm275.901-2.904c.063-.19.252-.344.419-.344.167 0 .356.155.419.344.063.19-.126.344-.419.344s-.482-.155-.419-.344zm199.619-.136c0-.264.144-.48.32-.48.176 0 .32.216.32.48s-.144.48-.32.48c-.176 0-.32-.216-.32-.48zm-242.24-2.4a.32.32 0 01.32-.32.32.32 0 01.32.32.32.32 0 01-.32.32.32.32 0 01-.32-.32zm-52.8-1.28a.32.32 0 01.32-.32.32.32 0 01.32.32.32.32 0 01-.32.32.32.32 0 01-.32-.32zm-157.76-4.48a.32.32 0 01.32-.32.32.32 0 01.32.32.32.32 0 01-.32.32.32.32 0 01-.32-.32zm483.844-1.597c-.58-.36-.132-1.355.551-1.223.307.059.602.34.657.623.117.608-.61.969-1.208.6zm-63.583-.347c-.752-.28-1.381-1.215-1.381-2.054 0-.286.128-.44.284-.344.156.096.461-.04.679-.302.476-.573 1.642-.623 2.173-.092.424.424.507 1.823.14 2.36-.371.54-1.135.715-1.895.432zm-64.884-.589a.357.357 0 01.116-.49.357.357 0 01.49.116.357.357 0 01-.116.49.357.357 0 01-.49-.116zm58.703-2.267c0-.176.153-.32.339-.32.186 0 .25.144.141.32-.109.176-.261.32-.339.32-.077 0-.141-.144-.141-.32zm30.72-.64a.32.32 0 01.32-.32.32.32 0 01.32.32.32.32 0 01-.32.32.32.32 0 01-.32-.32zm-132.966-1.29c-.125-.201-.076-.516.108-.7.43-.43 1.433-.055 1.258.47-.178.535-1.084.687-1.366.23zM288.96 198.7c0-.186.144-.25.32-.141.176.109.32.261.32.339 0 .077-.144.141-.32.141-.176 0-.32-.152-.32-.339zm17.6-.941a.32.32 0 01.32-.32.32.32 0 01.32.32.32.32 0 01-.32.32.32.32 0 01-.32-.32zm-3.2-1.44c0-.293.155-.482.344-.419.19.063.344.252.344.419 0 .167-.155.356-.344.419-.19.063-.344-.126-.344-.419zm-225.6-.8a.32.32 0 01.32-.32.32.32 0 01.32.32.32.32 0 01-.32.32.32.32 0 01-.32-.32zm73.92-1.44c0-.264.216-.48.48-.48s.48.216.48.48-.216.48-.48.48a.481.481 0 01-.48-.48zm387.2-4.64a.32.32 0 01.32-.32.32.32 0 01.32.32.32.32 0 01-.32.32.32.32 0 01-.32-.32zm-187.2-1.28c0-.176.216-.32.48-.32s.48.144.48.32c0 .176-.216.32-.48.32s-.48-.144-.48-.32zm226.77.104c-.115-.116-.21-.403-.21-.637 0-.477.825-.584 1.098-.143.217.352-.598 1.07-.887.78zM395.2 187.2a.32.32 0 01.32-.32.32.32 0 01.32.32.32.32 0 01-.32.32.32.32 0 01-.32-.32zm-184.32-1.6c0-.176.216-.32.48-.32s.48.144.48.32c0 .176-.216.32-.48.32s-.48-.144-.48-.32zm-167.942-6.48c.067-.473.322-.72.742-.72s.675.247.742.72c.084.59-.05.72-.742.72-.693 0-.826-.13-.742-.72zm524.742.438c0-.176.144-.41.32-.518.176-.109.32-.054.32.122s-.144.41-.32.518c-.176.109-.32.054-.32-.122zm-324.48-.838c0-.293.155-.482.344-.419.19.063.344.252.344.419 0 .167-.155.356-.344.419-.19.063-.344-.126-.344-.419zm242.24-.48a.32.32 0 01.32-.32.32.32 0 01.32.32.32.32 0 01-.32.32.32.32 0 01-.32-.32zm-23.186-1.258c-.219-.354.286-.735.581-.44.305.304.248.738-.096.738-.166 0-.384-.134-.485-.298zm-335.746-1.801c-.24-.626.049-.912.678-.67.633.242.634.727.002.97a.51.51 0 01-.68-.3zm-70.828-.461a.32.32 0 01.32-.32.32.32 0 01.32.32.32.32 0 01-.32.32.32.32 0 01-.32-.32zm221.965-2.142c-.36-.36-.22-.738.275-.738.264 0 .48.136.48.301 0 .404-.5.693-.755.437zm271.795-.391c0-.393.207-.667.503-.667.298 0 .462.218.4.533-.155.803-.903.914-.903.134zm-544.115-.249c-.383-.382-.207-1.058.275-1.058.264 0 .48.207.48.461 0 .535-.457.896-.755.597zm480.176-1.722c.063-.19.252-.344.419-.344.167 0 .356.155.419.344.063.19-.126.344-.419.344s-.482-.155-.419-.344zm103.299-.296c0-.176.153-.32.339-.32.186 0 .25.144.141.32-.109.176-.261.32-.339.32-.077 0-.141-.144-.141-.32zm-183.2-.32c-.109-.176-.045-.32.141-.32.187 0 .339.144.339.32 0 .176-.063.32-.141.32-.078 0-.23-.144-.339-.32zm60.96-4.96c0-.267.284-.48.64-.48.356 0 .64.213.64.48s-.284.48-.64.48c-.356 0-.64-.213-.64-.48zm110.72-9.459c0-.186.144-.25.32-.141.176.109.32.261.32.339 0 .077-.144.141-.32.141-.176 0-.32-.152-.32-.339zm14.48-2.217c-.572-.35-1.042-.817-1.044-1.04-.002-.222-.09-.723-.195-1.114-.29-1.08 1.413-2.65 2.872-2.65 2.55 0 3.572 3.316 1.48 4.806-1.121.798-1.802.797-3.113-.002zM64.32 150.7c0-.186.144-.25.32-.141.176.109.32.261.32.339 0 .077-.144.141-.32.141-.176 0-.32-.152-.32-.339zm368.32-.621c0-.176.153-.32.339-.32.186 0 .25.144.141.32-.109.176-.261.32-.339.32-.077 0-.141-.144-.141-.32zm144.86.113c-.453-.453-.197-1.073.443-1.073.448 0 .63.174.56.533-.114.59-.66.883-1.003.54zm-126.94-5.233c0-.176.216-.32.48-.32s.48.144.48.32c0 .176-.216.32-.48.32s-.48-.144-.48-.32zm-147.666-1.898c-.219-.354.286-.735.581-.44.305.304.248.738-.096.738-.166 0-.384-.134-.485-.298zM69.76 141.12a.32.32 0 01.32-.32.32.32 0 01.32.32.32.32 0 01-.32.32.32.32 0 01-.32-.32zm301.76-2.579c0-.186.144-.25.32-.141.176.109.32.261.32.339 0 .077-.144.141-.32.141-.176 0-.32-.152-.32-.339zm103.491-.027c-.078-.127-.008-.312.155-.413.342-.211 1.314.103 1.314.425 0 .29-1.288.28-1.469-.012zm2.822-1.294c.198-.593.887-.692.887-.127a.508.508 0 01-.507.507c-.278 0-.45-.171-.38-.38zm54.352-.447c.016-.372.091-.448.194-.193.092.231.08.507-.026.613-.106.107-.182-.082-.168-.42zm-.985-1.112c0-.186.144-.25.32-.141.176.109.32.261.32.339 0 .077-.144.141-.32.141-.176 0-.32-.153-.32-.339zm6.72-.941a.32.32 0 01.32-.32.32.32 0 01.32.32.32.32 0 01-.32.32.32.32 0 01-.32-.32zm-131.986-.298c-.102-.164-.038-.388.14-.499.18-.11.326.024.326.298 0 .562-.192.645-.466.201zm144.786-.022a.32.32 0 01.32-.32.32.32 0 01.32.32.32.32 0 01-.32.32.32.32 0 01-.32-.32zm25.92 0a.32.32 0 01.32-.32.32.32 0 01.32.32.32.32 0 01-.32.32.32.32 0 01-.32-.32zm-326.08-4.16a.32.32 0 01.32-.32.32.32 0 01.32.32.32.32 0 01-.32.32.32.32 0 01-.32-.32zm-56.615-.77c-.451-.544-.211-1.15.455-1.15.693 0 .923.654.41 1.167-.407.407-.515.405-.865-.017zm-133.785-.99c0-.264.144-.48.32-.48.176 0 .32.216.32.48s-.144.48-.32.48c-.176 0-.32-.216-.32-.48zm438.907-.757c-.138-.223-.165-.492-.059-.598.286-.286.599.135.444.6-.108.324-.184.324-.385-.002zm-200.347-.363c.109-.176.261-.32.339-.32.077 0 .141.144.141.32 0 .176-.152.32-.339.32-.186 0-.25-.144-.141-.32zm141.6-1.6a.32.32 0 01.32-.32.32.32 0 01.32.32.32.32 0 01-.32.32.32.32 0 01-.32-.32zm-222.08-3.2c0-.176.153-.32.339-.32.186 0 .25.144.141.32-.109.176-.261.32-.339.32-.077 0-.141-.144-.141-.32zm-155.52-.32a.32.32 0 01.32-.32.32.32 0 01.32.32.32.32 0 01-.32.32.32.32 0 01-.32-.32zm204.8-.32c0-.176.216-.32.48-.32s.48.144.48.32c0 .176-.216.32-.48.32s-.48-.144-.48-.32zm-178.066-1.258c-.219-.354.286-.735.581-.44.305.304.248.738-.096.738-.166 0-.384-.134-.485-.298zM350.72 120c0-.176.153-.32.339-.32.186 0 .25.144.141.32-.109.176-.261.32-.339.32-.077 0-.141-.144-.141-.32zm206.72-.019c0-.186.144-.25.32-.141.176.109.32.261.32.339 0 .077-.144.141-.32.141-.176 0-.32-.153-.32-.339zm-378.726-.951c-.125-.201-.076-.516.108-.7.43-.43 1.433-.055 1.258.47-.178.535-1.084.687-1.366.23zm398.246-.63a.32.32 0 01.32-.32.32.32 0 01.32.32.32.32 0 01-.32.32.32.32 0 01-.32-.32zm-318.4-.96a.32.32 0 01.32-.32.32.32 0 01.32.32.32.32 0 01-.32.32.32.32 0 01-.32-.32zm253.488-3.184c.07-.211.232-.373.36-.36.383.04.309.478-.104.616-.211.07-.326-.045-.256-.256zm26.414-.54c-.256-.256.033-.756.437-.756.166 0 .301.216.301.48 0 .495-.378.636-.738.275zM210.24 112.3c0-.186.144-.25.32-.141.176.109.32.261.32.339 0 .077-.144.141-.32.141-.176 0-.32-.152-.32-.339zm392.96-.48c0-.274.144-.41.32-.301.176.109.32.333.32.499 0 .166-.144.301-.32.301-.176 0-.32-.224-.32-.499zm-519.68-.141a.32.32 0 01.32-.32.32.32 0 01.32.32.32.32 0 01-.32.32.32.32 0 01-.32-.32zm-30.24-3.52c-.109-.176-.045-.32.141-.32.187 0 .339.144.339.32 0 .176-.063.32-.141.32-.078 0-.23-.144-.339-.32zm426.56-2.24c-.109-.176-.045-.32.141-.32.187 0 .339.144.339.32 0 .176-.063.32-.141.32-.078 0-.23-.144-.339-.32zm-316-2.259c0-.186.144-.25.32-.141.176.109.32.261.32.339 0 .077-.144.141-.32.141-.176 0-.32-.152-.32-.339zm278.577-.274a.357.357 0 01.116-.49.357.357 0 01.49.116.357.357 0 01-.116.49.357.357 0 01-.49-.116zm44.623-1.307a.32.32 0 01.32-.32.32.32 0 01.32.32.32.32 0 01-.32.32.32.32 0 01-.32-.32zm122.72-.64c.109-.176.261-.32.339-.32.078 0 .141.144.141.32 0 .176-.152.32-.339.32-.186 0-.25-.144-.141-.32zm-396.96-1.6a.32.32 0 01.32-.32.32.32 0 01.32.32.32.32 0 01-.32.32.32.32 0 01-.32-.32zm57.68-2.399c-.597-.678-.484-1.441.213-1.441.681 0 .958.51.738 1.36-.174.67-.415.69-.951.081zm41.84-2.527c0-.482.777-.91 1.089-.599.421.422.153 1.045-.449 1.045-.352 0-.64-.2-.64-.446zM1.34 93.52c.06-.308.32-.56.58-.56.26 0 .52.252.58.56.075.393-.098.56-.58.56s-.655-.167-.58-.56zm171.14-2.64c0-.176.216-.32.48-.32s.48.144.48.32c0 .176-.216.32-.48.32s-.48-.144-.48-.32zM66.734 89.622c-.237-.383.365-.762.791-.499.358.221.123.797-.325.797-.155 0-.365-.134-.466-.298zm54.546-4.182a.32.32 0 01.32-.32.32.32 0 01.32.32.32.32 0 01-.32.32.32.32 0 01-.32-.32zM13.005 84.258c-.36-.36-.22-.738.275-.738.264 0 .48.136.48.301 0 .404-.5.693-.755.437zm513.136-.338c.06-.308.32-.56.579-.56.26 0 .52.252.58.56.075.393-.098.56-.58.56s-.655-.167-.58-.56zm-483.261-.4a.32.32 0 01.32-.32.32.32 0 01.32.32.32.32 0 01-.32.32.32.32 0 01-.32-.32zm32.817-2.213a.357.357 0 01.116-.49.357.357 0 01.49.116.357.357 0 01-.116.49.357.357 0 01-.49-.116zm86.863-.347a.32.32 0 01.32-.32.32.32 0 01.32.32.32.32 0 01-.32.32.32.32 0 01-.32-.32zm315.2-1.261c0-.342.128-.7.284-.797.39-.24 1.1.67.845 1.084-.35.567-1.129.369-1.129-.287zm-257.84.076c-.661-.245-.48-1.375.221-1.375.342 0 .719.158.838.35.275.446-.528 1.222-1.059 1.025zm162.16-.415a.32.32 0 01.32-.32.32.32 0 01.32.32.32.32 0 01-.32.32.32.32 0 01-.32-.32zm213.76-.16c0-.264.216-.48.48-.48s.48.216.48.48-.216.48-.48.48a.481.481 0 01-.48-.48zm-306.214-.751c-.217-.407-.2-.706.053-.96.878-.878 1.99.12 1.198 1.075-.525.632-.868.6-1.25-.115zM559.36 78.4c0-.176.153-.32.339-.32.186 0 .25.144.141.32-.109.176-.261.32-.339.32-.077 0-.141-.144-.141-.32zM71.04 77.12a.32.32 0 01.32-.32.32.32 0 01.32.32.32.32 0 01-.32.32.32.32 0 01-.32-.32zm516.64-4.16c-.109-.176.027-.32.301-.32.275 0 .499.144.499.32 0 .176-.135.32-.301.32-.166 0-.39-.144-.499-.32zm-576.8-.48c0-.264.144-.48.32-.48.176 0 .32.216.32.48s-.144.48-.32.48c-.176 0-.32-.216-.32-.48zm71.095-.05c.135-.701 1.065-.8 1.065-.114 0 .261-.265.526-.59.589-.427.082-.557-.048-.475-.476zm52.423.047c-.566-.681-.139-1.502.717-1.38.923.132 1.11 1.08.298 1.515-.472.252-.721.22-1.015-.135zM441.28 70.4c0-.176.216-.32.48-.32s.48.144.48.32c0 .176-.216.32-.48.32s-.48-.144-.48-.32zm-156.16-4.48a.32.32 0 01.32-.32.32.32 0 01.32.32.32.32 0 01-.32.32.32.32 0 01-.32-.32zm227.84-.16c0-.264.216-.48.48-.48s.48.216.48.48-.216.48-.48.48a.481.481 0 01-.48-.48zm-423.04-.48a.32.32 0 01.32-.32.32.32 0 01.32.32.32.32 0 01-.32.32.32.32 0 01-.32-.32zm283.52-4.933c0-.279.228-.507.507-.507.278 0 .45.171.38.38-.198.593-.887.692-.887.127zm-235.718-2.252c-.245-.636.117-1.135.823-1.135.629 0 .968.55.741 1.2-.192.552-1.346.504-1.564-.065zM458.08 53.44c.109-.176.261-.32.339-.32.078 0 .141.144.141.32 0 .176-.152.32-.339.32-.186 0-.25-.144-.141-.32zm-173.12-2.88c.109-.176.261-.32.339-.32.078 0 .141.144.141.32 0 .176-.152.32-.339.32-.186 0-.25-.144-.141-.32zm-161.28-.96c.109-.176.261-.32.339-.32.077 0 .141.144.141.32 0 .176-.152.32-.339.32-.186 0-.25-.144-.141-.32zm159.71-5.71c-.11-.18-.044-.422.146-.54.492-.304.81.113.399.523-.23.23-.409.236-.544.017zm195.33-.69a.32.32 0 01.32-.32.32.32 0 01.32.32.32.32 0 01-.32.32.32.32 0 01-.32-.32zM46.4 42.24a.32.32 0 01.32-.32.32.32 0 01.32.32.32.32 0 01-.32.32.32.32 0 01-.32-.32zm420.32-1.597c-.257-.814.035-1.283.8-1.283.331 0 .692.145.802.323.344.557-.178 1.597-.802 1.597-.328 0-.688-.287-.8-.637zm-326.035-2.145c-.36-.36-.22-.738.275-.738.264 0 .48.136.48.301 0 .404-.5.693-.755.437zM96.64 36.933c0-.565.689-.466.887.127.07.209-.102.38-.38.38a.508.508 0 01-.507-.507zM201.6 36.8a.32.32 0 01.32-.32.32.32 0 01.32.32.32.32 0 01-.32.32.32.32 0 01-.32-.32zM31.854 35.73c-.844-.617-.44-2.13.568-2.13 1.432 0 2.062 1.596.879 2.229-.775.414-.741.417-1.447-.1zM193.6 31.223c0-.296.274-.503.667-.503.78 0 .67.748-.134.903-.315.062-.533-.102-.533-.4zm-86.853-7.82c-.138-.223-.165-.492-.06-.598.287-.286.6.135.445.6-.108.324-.184.324-.385-.002zm-26.107-2.15c0-.565.689-.466.887.127.07.209-.102.38-.38.38a.508.508 0 01-.507-.507zm184.427-.315c-.266-.695.41-1.348.895-.864.41.41.156 1.366-.362 1.366-.187 0-.427-.226-.533-.502zM12.8 14.267c0-.279.228-.507.507-.507.565 0 .466.689-.127.887-.209.07-.38-.102-.38-.38zm140.86-.107c.06-.308.32-.56.58-.56.26 0 .52.252.58.56.075.393-.098.56-.58.56s-.655-.167-.58-.56zm-90.74-.892a.51.51 0 01.3-.68c.625-.24.911.049.67.678-.243.633-.728.634-.97.002zm147.64-1.908c0-.264.216-.48.48-.48s.48.216.48.48-.216.48-.48.48a.481.481 0 01-.48-.48zM67.021 7.33c-.12-.194.016-.584.301-.87.477-.476.559-.476 1.036 0 .285.286.42.676.301.87-.28.453-1.358.453-1.638 0z"
    fill="#aaa" />
</svg>